<svg width="24" height="24" viewBox="0 0 24 24" fill="none" xmlns="http://www.w3.org/2000/svg">
<path fill-rule="evenodd" clip-rule="evenodd" d="M18 3H6C5.44772 3 5 3.44772 5 4V20.2918C5 20.3089 5.00359 20.3156 5.00551 20.3189C5.00875 20.3245 5.0154 20.3324 5.02643 20.3392C5.03746 20.346 5.04751 20.3484 5.05397 20.3488C5.0578 20.3491 5.06538 20.3493 5.08065 20.3416C5.65939 20.0523 6.34061 20.0523 6.91935 20.3416L7.55279 20.6584C7.83431 20.7991 8.16569 20.7991 8.44721 20.6584L8.65836 20.5528C9.50294 20.1305 10.4971 20.1305 11.3416 20.5528L11.5528 20.6584C11.8343 20.7991 12.1657 20.7991 12.4472 20.6584L12.6584 20.5528C13.5029 20.1305 14.4971 20.1305 15.3416 20.5528L15.5528 20.6584C15.8343 20.7991 16.1657 20.7991 16.4472 20.6584L17.0807 20.3416C17.6594 20.0523 18.3406 20.0523 18.9193 20.3416C18.9346 20.3493 18.9422 20.3491 18.946 20.3488C18.9525 20.3484 18.9625 20.346 18.9736 20.3392C18.9846 20.3324 18.9912 20.3245 18.9945 20.3189C18.9964 20.3156 19 20.3089 19 20.2918V4C19 3.44772 18.5523 3 18 3ZM6 2C4.89543 2 4 2.89543 4 4V20.2918C4 21.0766 4.82591 21.587 5.52786 21.2361C5.82508 21.0875 6.17492 21.0875 6.47214 21.2361L7.10557 21.5528C7.66863 21.8343 8.33137 21.8343 8.89443 21.5528L9.10557 21.4472C9.66863 21.1657 10.3314 21.1657 10.8944 21.4472L11.1056 21.5528C11.6686 21.8343 12.3314 21.8343 12.8944 21.5528L13.1056 21.4472C13.6686 21.1657 14.3314 21.1657 14.8944 21.4472L15.1056 21.5528C15.6686 21.8343 16.3314 21.8343 16.8944 21.5528L17.5279 21.2361C17.8251 21.0875 18.1749 21.0875 18.4721 21.2361C19.1741 21.587 20 21.0766 20 20.2918V4C20 2.89543 19.1046 2 18 2H6Z" fill="black"/>
<path fill-rule="evenodd" clip-rule="evenodd" d="M13.5 17.5C13.5 17.2239 13.7239 17 14 17H16.5C16.7761 17 17 17.2239 17 17.5C17 17.7761 16.7761 18 16.5 18H14C13.7239 18 13.5 17.7761 13.5 17.5Z" fill="black"/>
<path fill-rule="evenodd" clip-rule="evenodd" d="M7 14.5C7 14.2239 7.22386 14 7.5 14H12.5C12.7761 14 13 14.2239 13 14.5C13 14.7761 12.7761 15 12.5 15H7.5C7.22386 15 7 14.7761 7 14.5Z" fill="black"/>
<path fill-rule="evenodd" clip-rule="evenodd" d="M15 14.5C15 14.2239 15.2239 14 15.5 14H16.5C16.7761 14 17 14.2239 17 14.5C17 14.7761 16.7761 15 16.5 15H15.5C15.2239 15 15 14.7761 15 14.5Z" fill="black"/>
<path fill-rule="evenodd" clip-rule="evenodd" d="M7 12C7 11.7239 7.22386 11.5 7.5 11.5H12.5C12.7761 11.5 13 11.7239 13 12C13 12.2761 12.7761 12.5 12.5 12.5H7.5C7.22386 12.5 7 12.2761 7 12Z" fill="black"/>
<path fill-rule="evenodd" clip-rule="evenodd" d="M15 12C15 11.7239 15.2239 11.5 15.5 11.5H16.5C16.7761 11.5 17 11.7239 17 12C17 12.2761 16.7761 12.5 16.5 12.5H15.5C15.2239 12.5 15 12.2761 15 12Z" fill="black"/>
<path fill-rule="evenodd" clip-rule="evenodd" d="M15 9.5C15 9.22386 15.2239 9 15.5 9H16.5C16.7761 9 17 9.22386 17 9.5C17 9.77614 16.7761 10 16.5 10H15.5C15.2239 10 15 9.77614 15 9.5Z" fill="black"/>
<path fill-rule="evenodd" clip-rule="evenodd" d="M7 9.5C7 9.22386 7.22386 9 7.5 9H12.5C12.7761 9 13 9.22386 13 9.5C13 9.77614 12.7761 10 12.5 10H7.5C7.22386 10 7 9.77614 7 9.5Z" fill="black"/>
<path fill-rule="evenodd" clip-rule="evenodd" d="M7 5.5C7 5.22386 7.22386 5 7.5 5H10.5C10.7761 5 11 5.22386 11 5.5C11 5.77614 10.7761 6 10.5 6H7.5C7.22386 6 7 5.77614 7 5.5Z" fill="black"/>
</svg>

