<svg width="24" height="24" viewBox="0 0 24 24" fill="none" xmlns="http://www.w3.org/2000/svg">
<g clip-path="url(#clip0_21_9821)">
<path fill-rule="evenodd" clip-rule="evenodd" d="M4 5.00003L4 11.1716L3 11.1716L3 5.00003C3 3.89546 3.89543 3.00003 5 3.00003L11.1716 3.00003C11.702 3.00003 12.2107 3.21074 12.5858 3.58582L20.5858 11.5858C21.3668 12.3669 21.3668 13.6332 20.5858 14.4142L14.4142 20.5858C13.6332 21.3669 12.3668 21.3669 11.5858 20.5858L3.58578 12.5858C3.21071 12.2107 3 11.702 3 11.1716L4 11.1716C4 11.4368 4.10536 11.6912 4.29289 11.8787L12.2929 19.8787C12.6834 20.2692 13.3166 20.2692 13.7071 19.8787L19.8787 13.7071C20.2692 13.3166 20.2692 12.6834 19.8787 12.2929L11.8787 4.29292C11.6911 4.10539 11.4368 4.00003 11.1716 4.00003L5 4.00003C4.44771 4.00003 4 4.44774 4 5.00003Z" fill="black"/>
<path fill-rule="evenodd" clip-rule="evenodd" d="M7.92477 7C7.41403 7 7 7.41403 7 7.92477C7 8.4355 7.41403 8.84953 7.92477 8.84953C8.4355 8.84953 8.84953 8.4355 8.84953 7.92477C8.84953 7.41403 8.4355 7 7.92477 7ZM6 7.92477C6 6.86175 6.86175 6 7.92477 6C8.98779 6 9.84953 6.86175 9.84953 7.92477C9.84953 8.98779 8.98779 9.84953 7.92477 9.84953C6.86175 9.84953 6 8.98779 6 7.92477Z" fill="black"/>
</g>
<defs>
<clipPath id="clip0_21_9821">
<rect width="24" height="24" fill="white"/>
</clipPath>
</defs>
</svg>
